<svg width="580" height="400" xmlns="http://www.w3.org/2000/svg">
 <!-- Created with Method Draw - http://github.com/duopixel/Method-Draw/ -->

 <g>
  <title>background</title>
  <rect fill="#fff" id="canvas_background" height="402" width="582" y="-1" x="-1"/>
  <g display="none" overflow="visible" y="0" x="0" height="100%" width="100%" id="canvasGrid">
   <rect fill="url(#gridpattern)" stroke-width="0" y="0" x="0" height="100%" width="100%"/>
  </g>
 </g>
 <g>
  <title>Layer 1</title>

  <metadata transform="matrix(0.02839155407819427,0,0,0.02839155407819427,0,0) " id="svg_49">image/svg+xml</metadata>
  <g stroke="null" id="svg_51">
   <g stroke="null" transform="matrix(0.7360826122013958,0,0,0.7822979857376677,-7228.573283751252,-5309.779661396326) " id="svg_27">
    <g stroke="null" id="svg_39">
     <polygon stroke="null" fill="#264de4" points="9999.798324584961,7300.3486328125 9851.664321899414,7259.2255859375 9818.653327941895,6888.96875 10181.38735961914,6888.96875 10148.341339111328,7259.16748046875 " id="svg_48"/>
     <polygon stroke="null" fill="#2965f1" points="10120.050323486328,7235.5947265625 10148.290313720703,6919.24267578125 10000.020324707031,6919.24267578125 10000.020324707031,7268.87158203125 " id="svg_47"/>
     <polygon stroke="null" fill="#ebebeb" points="9894.330322265625,7056.5654296875 9898.400329589844,7101.9755859375 10000.020324707031,7101.9755859375 10000.020324707031,7056.5654296875 " id="svg_46"/>
     <polygon stroke="null" fill="#ebebeb" points="9886.152328491211,6964.65380859375 9890.280319213867,7010.064453125 10000.020324707031,7010.064453125 10000.020324707031,6964.65380859375 9999.863327026367,6964.65380859375 " id="svg_45"/>
     <polygon stroke="null" fill="#ebebeb" points="10000.020324707031,7174.50146484375 9999.821319580078,7174.5546875 9949.247329711914,7160.8984375 9946.01432800293,7124.681640625 9921.439331054688,7124.681640625 9900.429321289062,7124.681640625 9906.791320800781,7195.982421875 9999.811325073242,7221.8056640625 10000.020324707031,7221.74755859375 " id="svg_44"/>
     <path stroke="null" d="m9904.020325,6788.348633l55,0l0,23l-32,0l0,23l32,0l0,23l-55,0l0,-69z" id="svg_43"/>
     <path stroke="null" d="m9970.020325,6788.348633l55,0l0,20l-32,0l0,4l32,0l0,46l-55,0l0,-21l32,0l0,-4l-32,0l0,-45z" id="svg_42"/>
     <path stroke="null" d="m10036.020325,6788.348633l55,0l0,20l-32,0l0,4l32,0l0,46l-55,0l0,-21l32,0l0,-4l-32,0l0,-45z" id="svg_41"/>
     <polygon stroke="null" fill="#ffffff" points="10105.419311523438,7056.5654296875 10113.617309570312,6964.65380859375 9999.863327026367,6964.65380859375 9999.863327026367,7010.064453125 10063.851318359375,7010.064453125 10059.719329833984,7056.5654296875 9999.863327026367,7056.5654296875 9999.863327026367,7101.9755859375 10055.781311035156,7101.9755859375 10050.510314941406,7160.86962890625 9999.863327026367,7174.53955078125 9999.863327026367,7221.78369140625 10092.957336425781,7195.982421875 10093.640319824219,7188.310546875 10104.311309814453,7068.759765625 " id="svg_40"/>
    </g>
    <g stroke="null" id="svg_28">
     <polygon stroke="null" fill="#e44d26" points="10609.958740234375,6888.96875 10576.912780761719,7259.16748046875 10428.369750976562,7300.3486328125 10280.235748291016,7259.2255859375 10247.22476196289,6888.96875 " id="svg_38"/>
     <polygon stroke="null" fill="#f16529" points="10428.591735839844,7268.87158203125 10548.621765136719,7235.5947265625 10576.861755371094,6919.24267578125 10428.591735839844,6919.24267578125 " id="svg_37"/>
     <polygon stroke="null" fill="#ebebeb" points="10364.351745605469,7010.064453125 10428.591735839844,7010.064453125 10428.591735839844,6964.65380859375 10428.434753417969,6964.65380859375 10314.723754882812,6964.65380859375 10315.810729980469,6976.83642578125 10326.971740722656,7101.9755859375 10428.591735839844,7101.9755859375 10428.591735839844,7056.5654296875 10368.501770019531,7056.5654296875 " id="svg_36"/>
     <polygon stroke="null" fill="#ebebeb" points="10374.585754394531,7124.681640625 10350.0107421875,7124.681640625 10329.000732421875,7124.681640625 10335.362731933594,7195.982421875 10428.382751464844,7221.8056640625 10428.591735839844,7221.74755859375 10428.591735839844,7174.50146484375 10428.392761230469,7174.5546875 10377.818725585938,7160.8984375 " id="svg_35"/>
     <path stroke="null" d="m10280.973751,6788.348633l23.077,0l0,22.8l21.11,0l0,-22.8l23.078,0l0,69.044l-23.077,0l0,-23.12l-21.11,0l0,23.12l-23.077,0l0,-69.044l-0.001,0z" id="svg_34"/>
     <path stroke="null" d="m10378.585751,6811.244633l-20.316,0l0,-22.896l63.72,0l0,22.896l-20.325,0l0,46.148l-23.078,0l0,-46.148l-0.001,0z" id="svg_33"/>
     <path stroke="null" d="m10432.102751,6788.348633l24.063,0l14.802,24.26l14.787,-24.26l24.072,0l0,69.044l-22.982,0l0,-34.222l-15.877,24.549l-0.397,0l-15.888,-24.549l0,34.222l-22.58,0l0,-69.044z" id="svg_32"/>
     <path stroke="null" d="m10521.311751,6788.348633l23.084,0l0,46.222l32.453,0l0,22.822l-55.537,0l0,-69.044z" id="svg_31"/>
     <polygon stroke="null" fill="#ffffff" points="10428.434753417969,7101.9755859375 10484.352722167969,7101.9755859375 10479.081726074219,7160.86962890625 10428.434753417969,7174.53955078125 10428.434753417969,7221.78369140625 10521.528747558594,7195.982421875 10522.211730957031,7188.310546875 10532.882751464844,7068.759765625 10533.99072265625,7056.5654296875 10521.753723144531,7056.5654296875 10428.434753417969,7056.5654296875 " id="svg_30"/>
     <polygon stroke="null" fill="#ffffff" points="10428.434753417969,7009.95361328125 10428.434753417969,7010.064453125 10537.976745605469,7010.064453125 10537.976745605469,7010.064453125 10538.122741699219,7010.064453125 10539.033752441406,6999.857421875 10541.102722167969,6976.83642578125 10542.188720703125,6964.65380859375 10428.434753417969,6964.65380859375 10428.434753417969,6992.857421875 " id="svg_29"/>
    </g>
   </g>
  </g>
  <text stroke="#000" transform="rotate(-25.89615821838379 276.33630371093744,228.16107177734378) matrix(14.020925684075298,0,0,12.968295396152788,-3507.4566072905104,-1004.0442352246309) " xml:space="preserve" text-anchor="start" font-family="Helvetica, Arial, sans-serif" font-size="24" id="svg_52" y="103.317968" x="261.854151" stroke-width="0" fill="#000000">&amp;</text>
  <text transform="rotate(-8.863314628601074 495.6875000000001,377.4999999999996) " xml:space="preserve" text-anchor="start" font-family="Helvetica, Arial, sans-serif" font-size="24" id="svg_53" y="386" x="410.5" stroke-width="0" stroke="#000" fill="#000000">For a dummie :)</text>
 </g>
</svg>